<svg width="659" height="538" viewBox="0 0 659 538" fill="none" xmlns="http://www.w3.org/2000/svg">
<path fill-rule="evenodd" clip-rule="evenodd" d="M96.0231 462.289L96.4831 448.661L129.563 448.702L129.521 461.746L540.191 462.331L540.651 448.87L574.023 448.661L574.106 461.955L595.685 462.373C596.145 448.117 596.062 98.5782 596.062 57.4412C596.062 45.2339 595.936 9.82437 595.476 0.0417957L574.399 0.125387L573.897 15.5936L540.609 15.5518L540.4 0L130.19 0.0417957L129.228 15.0083L96.3577 15.6354L96.1904 0.250825L74.6114 0C73.6496 3.42808 73.8168 449.12 74.4023 462.289" fill="#020304"/>
<path fill-rule="evenodd" clip-rule="evenodd" d="M271.001 284.28C272.214 258.82 269.119 266.596 268.659 257.315C268.199 248.034 270.081 237.708 267.572 229.138C258.874 199.037 263.014 199.037 266.401 178.678C268.199 168.017 261.968 137.583 260.086 125.417C258.874 117.641 259.334 105.643 252.559 103.72C244.738 101.504 235.455 111.329 229.349 106.019C227.467 104.222 226.84 106.354 227.969 101.003C228.722 97.3236 232.611 95.3588 234.493 93.7284C242.48 86.705 249.464 81.7301 250.886 73.0345C255.277 73.8706 253.688 74.4141 258.874 74.6231L259.041 81.6882C268.659 81.2284 262.763 84.113 268.492 84.2802C268.659 84.2802 272.549 83.5277 273.385 83.4441C272.465 102.633 265.899 81.2284 271.796 109.197C279.031 143.728 274.305 127.466 285.429 143.937C287.98 147.7 287.938 152.758 289.737 156.563C290.698 158.486 294.546 162.666 296.344 165.718C299.02 170.233 299.439 172.574 302.784 176.128C325.116 200.041 308.221 232.9 307.719 239.004L306.715 252.549C306.339 261.663 304.164 257.649 304.206 283.276L340.757 281.729C343.015 271.32 339.335 261.83 337.746 252.298C336.575 254.472 336.533 257.44 333.982 259.74L334.065 246.111C332.058 248.995 333.145 248.201 329.423 247.699C327.751 242.056 333.145 230.768 330.887 219.021C327.416 200.71 321.227 182.942 346.737 172.073C388.306 154.347 395.164 139.715 411.725 98.7869C417.914 83.5278 407.334 84.0712 406.832 72.0729C411.767 72.0311 413.69 74.4977 416.367 76.3371C416.827 74.4559 416.91 72.9926 417.245 71.3622C418.123 67.2652 417.161 67.8087 419.629 66.68C425.609 63.879 423.392 69.5646 424.438 73.2017C428.076 70.4843 425.442 72.1983 427.031 67.8505C428.787 63.0428 425.943 64.7151 431.296 64.6315L432.049 75.292C436.482 73.7034 438.029 72.4492 443.508 72.1983C442.337 84.9491 435.646 82.4826 434.056 95.6514C431.924 113.126 426.863 106.437 423.56 117.683C416.367 142.098 405.201 166.094 414.903 180.894C417.579 184.949 420.716 185.701 420.005 192.265C419.336 198.118 416.032 199.288 414.359 202.507C412.143 206.771 413.816 213.46 413.857 218.686C413.941 229.388 408.714 225.751 407.375 245.693C406.664 256.102 405.954 266.387 405.117 276.838C428.411 276.295 446.728 274.831 468.474 281.688C483.404 286.412 513.514 300.751 514.685 275.375C515.647 254.012 514.267 228.134 514.267 206.103V66.4709C514.058 36.956 489.133 41.9727 470.189 41.9727H196.688C147.089 41.9727 155.662 46.5296 155.662 139.13C155.662 155.894 154.617 271.863 156.373 278.009C159.343 288.544 168.083 287.373 178.58 289.254C190.833 291.428 194.513 295.567 206.933 289.213C219.396 282.9 254.357 285.743 271.001 284.28Z" fill="#FFD200"/>
<path fill-rule="evenodd" clip-rule="evenodd" d="M376.287 279.305L396.946 277.507C393.015 259.865 395.524 240.3 397.114 221.906L386.784 221.947C386.24 233.737 384.359 240.133 384.902 252.717C385.404 263.67 379.717 271.236 376.287 279.305Z" fill="#FFD200"/>
<path fill-rule="evenodd" clip-rule="evenodd" d="M354.883 280.977L367.345 280.685C375.416 270.777 373.869 245.61 372.531 232.19C368.056 235.743 363.623 246.613 360.445 252.967C355.635 262.834 356.137 269.188 354.883 280.977Z" fill="#FFD200"/>
<path fill-rule="evenodd" clip-rule="evenodd" d="M289.053 283.695L298.086 283.444C298.044 275.836 299.299 268.938 296.079 263.628C290.475 254.389 292.231 245.903 292.399 234.49C292.482 226.505 291.939 228.344 291.562 227.09C291.479 226.881 291.353 226.463 291.228 226.17C288.342 231.145 290.809 249.373 290.642 254.974C290.475 260.2 289.137 262.291 289.137 268.52C289.095 273.578 289.178 278.595 289.053 283.695Z" fill="#FFD200"/>
<path d="M51.0619 480.266C51.0619 480.6 50.9364 480.935 50.7273 481.227C50.5182 481.52 50.2255 481.855 49.9746 482.105C49.6819 482.398 49.3891 482.607 49.0546 482.774C48.72 482.942 48.4691 483.025 48.3018 483.025C48.0927 483.025 47.9254 482.941 47.8836 482.816C47.8418 482.691 47.6745 482.147 47.4654 481.227C47.1727 480.099 46.5036 479.388 45.3744 479.095C44.2871 478.803 43.0743 478.677 41.8616 478.677C38.1814 478.677 34.4176 479.179 30.5284 480.182C26.681 481.186 22.959 482.44 19.4044 483.945C15.8497 485.45 12.6714 487.08 9.78582 488.878C6.90025 490.676 4.68381 492.306 3.09466 493.853C2.50918 494.355 2.13281 494.689 1.92371 494.773C1.71461 494.898 1.50552 494.94 1.33824 494.94C0.920039 494.94 0.627294 494.773 0.376375 494.48C0.125457 494.187 0 493.853 0 493.602C0 493.226 0.418202 492.64 1.33824 491.846C2.21645 491.094 3.34558 490.216 4.76745 489.296C6.18932 488.376 7.73665 487.415 9.45126 486.411C11.1659 485.408 12.8387 484.53 14.4696 483.736C18.7352 481.687 23.0845 479.973 27.5174 478.635C31.9921 477.256 36.5505 476.587 41.2761 476.587C42.7398 476.587 44.1616 476.671 45.5417 476.838C46.9217 477.005 48.0509 477.381 49.0127 477.925C49.0546 477.967 49.2218 478.092 49.4309 478.217C49.64 478.343 49.8909 478.51 50.1419 478.719C50.3928 478.928 50.6019 479.137 50.811 479.388C50.9783 479.722 51.0619 480.015 51.0619 480.266ZM27.7683 502.005C27.7265 502.799 27.6847 503.677 27.6429 504.681C27.601 505.684 27.601 506.771 27.601 507.941C27.601 508.861 27.601 510.073 27.6429 511.662C27.6847 513.209 27.8101 514.756 28.061 516.261C28.312 517.766 28.7302 519.062 29.2738 520.191C29.8175 521.278 30.5702 521.863 31.5321 521.863C32.3685 521.863 32.954 521.905 33.2049 521.946C33.4558 521.988 33.5812 522.155 33.5812 522.448C33.5812 522.741 33.4558 522.991 33.2049 523.159C32.954 523.368 32.6612 523.493 32.3685 523.577C32.0757 523.66 31.7412 523.702 31.4066 523.744C31.0721 523.786 30.8211 523.786 30.6539 523.786C29.1065 523.786 27.9356 523.117 27.141 521.737C26.3046 520.4 25.761 518.686 25.4264 516.637C25.1337 514.589 24.9664 512.373 24.9664 509.906C24.9664 507.482 25.0082 505.14 25.05 502.925C24.4645 503.092 23.8372 503.301 23.1681 503.594C22.499 503.886 21.8299 504.179 21.2026 504.43C20.5753 504.722 19.9898 504.973 19.4462 505.224C18.9025 505.475 18.5261 505.684 18.317 505.768C18.1916 505.768 17.9825 505.851 17.6897 506.018C17.397 506.186 17.0206 506.353 16.6443 506.52C16.2261 506.687 15.7242 506.938 15.0969 507.189C14.8042 507.189 14.5951 507.022 14.4278 506.687C14.2605 506.353 14.1769 506.102 14.1769 505.935C14.1769 505.809 14.2187 505.726 14.2605 505.642C14.3024 505.558 14.4696 505.433 14.7206 505.266C14.9715 505.099 15.3897 504.848 16.017 504.597C16.6024 504.304 17.4807 503.928 18.6098 503.385C19.8226 502.799 20.9099 502.339 21.9554 501.88C23.0009 501.462 24.0882 501.002 25.1337 500.584C25.1337 500.291 25.1755 499.747 25.2173 498.87C25.2591 498.033 25.3428 497.03 25.4264 495.901C25.51 494.773 25.5937 493.602 25.6773 492.39C25.761 491.177 25.8446 490.007 25.9701 488.962C26.0955 487.875 26.221 486.997 26.3464 486.286C26.4719 485.575 26.5974 485.157 26.7228 485.074C26.8901 484.948 27.0992 484.823 27.3919 484.697C27.6847 484.572 27.9774 484.446 28.312 484.363C28.6465 484.279 28.9811 484.196 29.232 484.154C29.5247 484.112 29.7338 484.07 29.8175 484.07C30.0266 484.07 30.152 484.154 30.152 484.321C30.152 484.739 30.0684 485.115 29.9429 485.533C29.8175 485.91 29.6084 486.62 29.3993 487.624C29.1902 488.627 28.8974 490.049 28.6465 491.972C28.3538 493.853 28.1029 496.487 27.8938 499.831C30.7375 499.079 32.9121 498.661 34.4176 498.452C35.9231 498.284 37.2196 498.201 38.3069 498.201C38.516 498.201 38.9342 498.201 39.5615 498.242C40.147 498.284 40.7324 498.326 41.3179 498.452C41.9034 498.577 42.4052 498.744 42.8652 499.037C43.3252 499.329 43.5344 499.706 43.5344 500.207C43.5344 500.709 43.3252 501.127 42.8652 501.503C42.4052 501.838 41.9452 502.005 41.4015 502.005C40.9415 502.005 40.6488 501.921 40.5233 501.712C40.3979 501.503 40.2724 501.252 40.1469 501.002C40.0215 500.793 39.896 500.584 39.7288 500.458C39.5615 500.333 39.0178 500.249 38.0978 500.249C36.4668 500.249 34.7522 500.416 32.9539 500.793C31.0302 501.127 29.3575 501.545 27.7683 502.005Z" fill="white"/>
<path d="M50.9835 509.112C50.9835 509.697 50.9835 510.492 51.0253 511.537C51.0672 512.582 51.1508 513.627 51.3181 514.672C51.4854 515.717 51.7363 516.679 52.029 517.473C52.3217 518.309 52.7818 518.727 53.3672 518.769C54.0364 518.895 54.4546 518.978 54.5382 519.02C54.6637 519.062 54.7055 519.229 54.7055 519.438C54.7055 519.94 54.4127 520.316 53.8273 520.567C53.2418 520.818 52.6981 520.943 52.2381 520.943C51.6108 520.943 51.109 520.776 50.7326 520.483C50.3562 520.191 50.0635 519.773 49.8544 519.354C49.6453 518.895 49.4362 518.435 49.3525 517.933C49.2271 517.431 49.1434 517.055 49.1016 516.762C48.9343 516.01 48.8089 515.174 48.7253 514.212C48.6416 513.251 48.558 512.247 48.5162 511.244C48.4743 510.241 48.4325 509.237 48.3907 508.276C48.3489 507.314 48.3489 506.478 48.3489 505.809C48.3489 505.475 48.3489 504.973 48.3489 504.346C48.3489 503.719 48.3907 503.05 48.4325 502.381C48.4743 501.712 48.558 501.085 48.6834 500.5C48.8089 499.915 48.9343 499.58 49.1016 499.413C49.3107 499.204 49.6871 498.953 50.1053 498.702C50.5653 498.452 51.0253 498.326 51.4854 498.326C52.0708 498.326 52.3218 498.577 52.3218 499.079C52.3218 499.33 52.2381 499.706 52.029 500.333C51.8199 500.918 51.6945 501.294 51.6526 501.462C51.4854 502.256 51.3181 503.217 51.1926 504.388C51.0672 505.642 50.9835 507.189 50.9835 509.112ZM51.8617 490.09C51.8617 490.383 51.8617 490.676 51.8617 490.927C51.8617 491.136 51.9036 491.386 51.9454 491.679C51.9454 491.804 51.9872 491.972 52.029 492.139C52.0708 492.348 52.1127 492.515 52.1127 492.599C52.1127 492.766 52.029 492.933 51.8199 493.1C51.6108 493.268 51.2763 493.351 50.8581 493.351C50.5235 493.351 50.2308 493.309 50.0635 493.226C49.8544 493.142 49.6871 492.891 49.6035 492.473C49.478 492.055 49.3944 491.428 49.3525 490.592C49.3107 489.756 49.2689 488.627 49.2689 487.164C49.2689 486.662 49.4362 486.244 49.8126 485.91C50.1889 485.617 50.8581 485.45 51.8199 485.45C51.9872 485.45 52.1545 485.492 52.3218 485.575C52.489 485.659 52.5727 485.784 52.5727 485.952C52.5727 486.244 52.5308 486.579 52.4054 486.955C52.2799 487.373 52.1963 487.707 52.0708 487.958C51.9454 488.418 51.9036 488.794 51.9036 489.129C51.8617 489.505 51.8617 489.798 51.8617 490.09Z" fill="white"/>
<path d="M68.4257 519.354C68.4257 519.647 68.2584 519.898 67.8821 520.065C67.5057 520.274 67.0875 520.358 66.5438 520.358C65.0801 520.358 63.9928 519.647 63.2819 518.184C62.571 516.721 62.0273 514.672 61.6091 511.913C61.2327 508.903 60.9818 505.935 60.8982 502.925C60.8145 499.957 60.7727 497.365 60.7727 495.232C60.7727 495.065 60.7727 494.564 60.7727 493.686C60.7727 492.85 60.8145 491.888 60.8563 490.885C60.8982 489.881 60.9818 488.92 61.0654 488.042C61.1491 487.164 61.2745 486.62 61.4418 486.37C61.6509 486.077 62.1109 485.826 62.7382 485.617C63.3655 485.408 63.8255 485.283 64.2019 485.283C64.7038 485.283 64.9547 485.533 64.9547 486.035C64.9547 486.202 64.9129 486.453 64.871 486.788C64.8292 487.122 64.7456 487.498 64.6619 487.916C64.5783 488.334 64.4947 488.669 64.411 489.003C64.3274 489.338 64.2856 489.589 64.2856 489.672C64.1183 490.508 63.9928 491.47 63.9092 492.515C63.8255 493.56 63.7419 494.605 63.7001 495.65C63.6583 496.696 63.6165 497.699 63.5746 498.661C63.5328 499.622 63.5328 500.458 63.5328 501.127C63.5328 502.089 63.5746 503.385 63.6165 505.057C63.6583 506.687 63.7837 508.401 63.951 510.115C64.1183 511.829 64.3692 513.418 64.6619 514.881C64.9547 516.344 65.3729 517.348 65.8747 517.891C66.2093 518.226 66.5438 518.435 66.8366 518.518C67.1293 518.602 67.5475 518.686 67.9657 518.727C68.3003 518.895 68.4257 519.062 68.4257 519.354Z" fill="white"/>
<path d="M73.8984 515.676C74.0657 514.756 74.2329 513.585 74.442 512.206C74.6511 510.784 74.8184 509.363 74.9857 507.942C75.153 506.52 75.2784 505.182 75.4039 503.97C75.5293 502.758 75.5712 501.88 75.5712 501.378C75.5712 501.253 75.5712 501.127 75.5293 500.918C75.4875 500.709 75.3621 500.626 75.0693 500.626C74.9021 500.626 74.693 500.751 74.442 501.002C74.1911 501.253 73.7311 501.963 73.1038 503.092C72.7692 503.845 72.5183 504.304 72.3511 504.513C72.1838 504.723 71.891 504.806 71.5147 504.806C71.3474 504.806 71.1383 504.764 70.8874 504.681C70.6364 504.597 70.511 504.43 70.511 504.137C70.511 504.095 70.6364 503.719 70.9292 503.092C71.2219 502.423 71.5983 501.712 72.0583 500.96C72.5601 500.207 73.1038 499.497 73.8147 498.87C74.4839 498.243 75.2784 497.95 76.1148 497.95C76.9094 497.95 77.4531 498.243 77.7876 498.786C78.0804 499.371 78.2476 499.998 78.2476 500.667C78.2476 501.503 78.2058 502.549 78.0804 503.719C77.9549 504.89 77.8294 506.228 77.6622 507.649C77.4949 509.07 77.2858 510.534 77.0349 512.039C76.784 513.544 76.533 515.007 76.3239 516.428C77.6203 513.669 78.9168 511.202 80.1714 509.028C81.4259 506.855 82.4714 505.141 83.3078 503.845C83.9769 502.841 84.5624 502.005 85.0224 501.42C85.4824 500.834 85.8588 500.375 86.1934 500.04C86.5279 499.748 86.8625 499.539 87.1134 499.455C87.4062 499.371 87.6989 499.329 88.0335 499.329C88.1589 499.329 88.368 499.371 88.7026 499.413C89.0371 499.455 89.2044 499.664 89.2044 499.998C89.2044 500.333 89.1626 500.751 89.0371 501.211C88.9117 501.712 88.828 502.089 88.7862 502.465C88.6189 503.301 88.4098 504.597 88.2007 506.311C87.9916 508.025 87.8662 510.324 87.8662 513.209C87.8662 513.502 87.8662 513.753 87.908 513.92C87.9498 514.129 87.9916 514.212 88.1171 514.212C88.2844 514.212 88.5771 513.92 88.9535 513.334C89.3717 512.749 89.7899 511.997 90.3335 511.119C90.8354 510.241 91.379 509.279 91.9645 508.234C92.55 507.189 93.0518 506.186 93.5955 505.224C94.0973 504.263 94.5155 503.427 94.8919 502.716C95.2265 502.005 95.4774 501.545 95.561 501.378C96.021 500.207 96.4392 499.288 96.8992 498.661C97.3174 498.034 98.0284 497.741 98.9902 497.741C99.3248 497.741 99.5339 497.783 99.6175 497.866C99.7012 497.95 99.743 498.117 99.743 498.326C99.743 498.452 99.7012 498.744 99.6593 499.288C99.6175 499.831 99.5757 500.416 99.5339 501.085C99.4921 501.754 99.4503 502.381 99.4084 503.008C99.3666 503.636 99.3248 504.054 99.3248 504.304C99.3248 505.141 99.3248 506.353 99.3666 507.858C99.4084 509.405 99.5339 510.91 99.7848 512.415C100.036 513.92 100.412 515.258 100.872 516.386C101.332 517.515 102.085 518.1 103.047 518.1C103.172 518.1 103.465 518.017 103.883 517.891C104.343 517.766 104.636 517.682 104.72 517.682C105.138 517.682 105.305 517.891 105.305 518.351C105.305 518.811 104.97 519.229 104.343 519.647C103.674 520.023 102.963 520.232 102.169 520.232C101.248 520.232 100.538 520.023 99.9521 519.605C99.3666 519.187 98.9066 518.644 98.5302 518.017C98.1538 517.39 97.9029 516.721 97.7356 516.01C97.5684 515.299 97.4429 514.63 97.3174 514.003C96.8574 511.746 96.6483 509.656 96.6483 507.774C96.6483 505.893 96.6901 504.472 96.732 503.426C96.2719 504.43 95.7701 505.559 95.1428 506.729C94.5573 507.9 93.9719 509.07 93.3864 510.115C92.8009 511.202 92.2991 512.122 91.839 512.958C91.379 513.794 91.0863 514.296 90.919 514.547C90.0826 516.01 89.3717 516.888 88.7862 517.181C88.2007 517.473 87.6989 517.599 87.2389 517.599C86.2352 517.599 85.6079 517.222 85.4406 516.428C85.2733 515.676 85.1897 514.463 85.1897 512.833C85.1897 510.784 85.2734 509.028 85.3988 507.565C85.5243 506.102 85.6497 504.806 85.7752 503.719C84.4788 505.517 83.1405 507.649 81.7605 510.115C80.3804 512.54 79.084 514.965 77.8294 517.348C77.3276 518.268 76.9512 518.978 76.7003 519.48C76.4494 519.982 76.2403 520.358 76.073 520.609C75.9057 520.86 75.7803 521.027 75.6966 521.069C75.613 521.11 75.5293 521.152 75.4039 521.152C74.9439 521.027 74.6093 520.943 74.3584 520.818C74.1075 520.692 73.8566 520.567 73.6475 520.4C73.4384 520.232 73.3129 520.023 73.3129 519.814L73.8984 515.676Z" fill="white"/>
<path d="M130.972 503.343L130.303 503.844C130.303 504.513 130.345 505.684 130.387 507.314C130.428 508.945 130.554 510.7 130.721 512.54C130.888 514.379 131.139 516.135 131.432 517.724C131.725 519.354 132.143 520.483 132.687 521.068C132.979 521.361 133.23 521.57 133.439 521.695C133.648 521.821 134.025 522.03 134.527 522.322C134.819 522.322 134.945 522.531 134.945 522.991C134.945 523.326 134.778 523.786 134.443 524.329C134.108 524.873 133.732 525.123 133.356 525.123C133.314 525.123 133.105 525.082 132.77 524.956C132.436 524.831 132.059 524.622 131.641 524.287C131.223 523.953 130.805 523.409 130.345 522.699C129.927 521.988 129.55 521.026 129.216 519.856C128.923 518.811 128.672 517.473 128.463 515.717C128.254 514.003 128.045 512.122 127.877 510.115C127.71 508.108 127.585 506.06 127.501 503.97C127.417 501.921 127.375 499.998 127.375 498.326C127.375 497.573 127.376 496.361 127.417 494.689C127.459 492.975 127.459 491.219 127.501 489.379C127.543 487.54 127.585 485.868 127.71 484.321C127.836 482.774 127.961 481.813 128.128 481.353C128.254 481.144 128.463 480.893 128.756 480.726C129.048 480.517 129.383 480.349 129.717 480.224C130.052 480.099 130.387 479.973 130.679 479.931C130.972 479.89 131.223 479.848 131.39 479.848C131.683 479.848 131.808 479.973 131.808 480.182C131.808 480.349 131.767 480.642 131.725 480.976C131.683 481.353 131.599 481.729 131.516 482.147C131.432 482.565 131.348 482.983 131.307 483.318C131.265 483.694 131.223 483.945 131.223 484.112C130.805 487.038 130.512 489.965 130.345 492.891C130.136 495.776 130.094 498.409 130.219 500.792C131.139 499.956 132.101 499.078 133.105 498.159C134.108 497.239 135.238 496.194 136.367 495.023C137.538 493.853 138.75 492.473 140.005 490.884C141.26 489.338 142.598 487.498 144.103 485.408C144.271 485.199 144.563 484.697 144.982 483.986C145.4 483.276 145.86 482.565 146.32 481.813C146.78 481.06 147.156 480.391 147.491 479.806C147.825 479.221 148.034 478.886 148.076 478.844C148.536 478.552 149.331 478.426 150.46 478.426C150.627 478.426 150.878 478.426 151.171 478.468C151.464 478.51 151.631 478.635 151.631 478.844C151.631 478.886 151.087 479.764 150.042 481.395C148.996 483.025 147.616 485.032 145.902 487.373C144.187 489.714 142.263 492.18 140.047 494.772C137.83 497.364 135.572 499.622 133.314 501.545C135.698 504.137 138.123 506.52 140.549 508.652C142.974 510.784 145.316 512.623 147.533 514.129C149.749 515.675 151.798 516.846 153.722 517.64C155.604 518.476 157.235 518.894 158.531 518.894C158.698 518.894 159.033 518.853 159.493 518.811C159.953 518.769 160.288 518.727 160.371 518.727C160.664 518.727 160.873 518.811 160.957 518.978C161.082 519.145 161.124 519.312 161.124 519.48C161.124 519.981 160.831 520.358 160.246 520.65C159.66 520.901 158.866 521.026 157.904 521.026C156.189 521.026 154.433 520.65 152.593 519.898C150.753 519.145 148.913 518.184 147.114 517.013C145.316 515.842 143.56 514.588 141.845 513.167C140.131 511.787 138.625 510.45 137.245 509.195L130.972 503.343Z" fill="white"/>
<path d="M165.9 511.955C165.858 512.707 165.858 513.418 165.942 514.17C166.025 514.923 166.193 515.592 166.485 516.219C166.778 516.846 167.154 517.348 167.614 517.766C168.116 518.184 168.744 518.351 169.538 518.351C170.207 518.351 170.918 518.225 171.587 517.933C172.256 517.64 172.926 517.348 173.595 516.971C174.264 516.595 174.849 516.177 175.435 515.759C176.02 515.299 176.522 514.923 176.982 514.547C177.275 514.338 177.609 514.045 177.986 513.752C178.362 513.46 178.738 513.292 178.989 513.292C179.366 513.292 179.575 513.543 179.575 513.961C179.575 514.296 179.408 514.672 179.115 515.006C178.822 515.383 178.404 515.801 177.902 516.219C175.937 518.058 174.222 519.229 172.884 519.814C171.504 520.399 170.291 520.65 169.12 520.65C167.824 520.65 166.778 520.358 165.983 519.814C165.189 519.229 164.562 518.56 164.143 517.724C163.725 516.888 163.432 516.01 163.307 515.09C163.182 514.17 163.098 513.334 163.098 512.582C163.098 511.118 163.265 509.404 163.6 507.523C163.934 505.642 164.478 503.844 165.189 502.172C165.9 500.5 166.778 499.078 167.865 497.908C168.953 496.737 170.207 496.152 171.713 496.152C172.298 496.152 172.884 496.319 173.553 496.695C174.222 497.072 174.515 497.866 174.515 499.12C174.515 500.082 174.306 501.127 173.929 502.256C173.511 503.384 172.967 504.513 172.215 505.642C171.462 506.771 170.584 507.899 169.496 508.986C168.409 510.115 167.196 511.077 165.9 511.955ZM165.9 509.112C166.694 508.61 167.447 507.941 168.2 507.063C168.953 506.227 169.58 505.349 170.165 504.429C170.751 503.51 171.169 502.674 171.545 501.838C171.88 501.001 172.047 500.332 172.047 499.831C172.047 499.705 172.005 499.455 171.922 499.078C171.838 498.66 171.545 498.493 171.044 498.493C170.458 498.493 169.915 498.869 169.371 499.58C168.827 500.333 168.325 501.21 167.865 502.297C167.405 503.384 167.029 504.555 166.694 505.809C166.318 507.063 166.067 508.15 165.9 509.112Z" fill="white"/>
<path d="M184.223 516.094C184.976 514.547 185.603 513.251 186.189 512.122C186.774 511.035 187.276 509.99 187.82 509.07C188.322 508.151 188.823 507.189 189.367 506.269C189.869 505.35 190.454 504.263 191.165 503.092C191.793 501.922 192.295 500.918 192.755 500.166C193.173 499.413 193.591 498.786 193.967 498.368C194.344 497.95 194.678 497.657 195.013 497.49C195.347 497.323 195.766 497.239 196.184 497.239C196.476 497.239 196.686 497.323 196.811 497.49C196.937 497.657 197.02 497.783 197.02 497.908C197.02 498.201 196.937 498.661 196.727 499.33C196.518 499.998 196.393 500.375 196.351 500.542C196.016 502.34 195.849 504.137 195.849 505.893C195.849 506.186 195.891 506.98 195.933 508.318C195.975 509.656 196.142 511.077 196.435 512.582C196.727 514.087 197.146 515.425 197.773 516.637C198.358 517.85 199.195 518.435 200.198 518.435C200.575 518.435 200.951 518.351 201.244 518.226C201.537 518.1 201.871 517.891 202.122 517.682C202.499 517.39 202.791 517.222 202.875 517.181C203 517.139 203.084 517.097 203.209 517.097C203.67 517.097 203.879 517.348 203.879 517.85C203.879 518.435 203.419 518.936 202.499 519.396C201.579 519.898 200.658 520.107 199.697 520.107C198.275 520.107 197.146 519.605 196.309 518.602C195.473 517.599 194.804 516.386 194.302 514.965C193.8 513.502 193.507 511.955 193.382 510.241C193.256 508.527 193.173 506.98 193.173 505.559C193.173 505.057 193.173 504.639 193.215 504.388C193.256 504.095 193.298 503.719 193.34 503.218C193.005 503.803 192.504 504.681 191.835 505.935C191.165 507.189 190.454 508.569 189.702 510.074C188.949 511.579 188.154 513.125 187.36 514.672C186.565 516.219 185.896 517.599 185.394 518.811C184.892 519.898 184.558 520.525 184.432 520.776C184.307 520.985 184.056 521.11 183.805 521.11C183.763 521.11 183.596 521.069 183.387 520.985C183.178 520.901 182.927 520.818 182.676 520.692C182.425 520.567 182.174 520.442 182.007 520.232C181.798 520.023 181.714 519.856 181.714 519.689C181.714 519.48 181.756 518.853 181.84 517.85C181.923 516.846 182.007 515.676 182.09 514.338C182.174 512.958 182.3 511.537 182.425 509.948C182.551 508.401 182.718 506.938 182.843 505.6C182.969 504.263 183.094 503.176 183.178 502.298C183.261 501.42 183.345 500.918 183.387 500.793C183.429 500.667 183.596 500.542 183.889 500.375C184.181 500.207 184.474 500.04 184.767 499.873C185.06 499.706 185.52 499.497 186.105 499.288C186.231 499.288 186.314 499.371 186.44 499.497C186.565 499.622 186.607 499.873 186.607 500.124C186.607 500.375 186.565 500.667 186.482 501.127C186.398 501.545 186.231 502.59 185.938 504.221C185.352 507.44 184.976 509.99 184.767 511.788C184.474 513.502 184.307 514.965 184.223 516.094Z" fill="white"/>
<path d="M219.845 505.81C219.427 506.98 218.883 508.527 218.173 510.367C217.462 512.206 216.667 514.004 215.831 515.801C214.994 517.599 214.074 519.104 213.112 520.4C212.15 521.696 211.23 522.323 210.394 522.323C209.809 522.323 209.349 522.156 208.972 521.863C208.596 521.571 208.303 521.152 208.136 520.734C207.927 520.274 207.801 519.856 207.718 519.397C207.634 518.979 207.55 518.602 207.508 518.351C207.341 517.181 207.216 515.801 207.132 514.213C207.048 512.666 206.965 511.161 206.923 509.781C206.881 508.402 206.839 507.189 206.798 506.186C206.756 505.183 206.756 504.597 206.756 504.43C206.756 503.845 206.798 503.427 206.923 503.051C207.048 502.716 207.383 502.382 207.927 502.131C208.094 502.005 208.345 501.88 208.721 501.671C209.098 501.462 209.39 501.378 209.599 501.378C209.892 501.378 210.018 501.546 210.018 501.88C210.018 501.922 210.018 502.131 209.976 502.423C209.934 502.716 209.934 503.092 209.892 503.427C209.85 503.803 209.809 504.137 209.767 504.472C209.725 504.806 209.683 505.057 209.683 505.141C209.558 506.395 209.516 507.524 209.474 508.611C209.432 509.656 209.432 510.45 209.432 510.952C209.432 511.412 209.432 512.122 209.474 513.084C209.516 514.045 209.558 515.007 209.641 516.01C209.725 517.014 209.85 517.892 210.018 518.644C210.185 519.397 210.394 519.773 210.603 519.773C210.896 519.773 211.44 519.062 212.276 517.599C213.112 516.136 213.949 514.422 214.827 512.457C215.705 510.45 216.5 508.443 217.169 506.353C217.838 504.263 218.173 502.591 218.173 501.295C218.173 500.166 218.005 499.246 217.629 498.494C217.252 497.741 217.043 497.323 217.002 497.198C216.876 497.072 216.667 496.821 216.332 496.403C215.998 495.985 215.831 495.693 215.831 495.526C215.831 495.358 215.956 495.191 216.207 494.982C216.458 494.773 216.751 494.606 217.043 494.439C217.336 494.271 217.629 494.146 217.88 494.02C218.131 493.895 218.298 493.853 218.34 493.853C218.507 493.853 218.758 494.062 219.051 494.522C219.343 494.982 219.678 495.567 219.971 496.278C220.264 496.989 220.598 497.825 220.891 498.745C221.184 499.664 221.518 500.584 221.769 501.504C222.354 503.761 222.815 505.977 223.191 508.067C223.567 510.158 223.86 512.081 224.027 513.753C224.236 515.467 224.362 516.93 224.404 518.184C224.445 519.438 224.487 520.358 224.487 520.985C224.487 523.326 224.32 525.5 224.027 527.591C223.735 529.639 223.191 531.478 222.438 532.983C221.685 534.53 220.724 535.743 219.511 536.621C218.298 537.54 216.751 538 214.869 538C213.071 538 211.272 537.54 209.516 536.704C207.759 535.826 206.17 534.739 204.79 533.485C203.41 532.189 202.281 530.893 201.445 529.555C200.608 528.218 200.148 527.089 200.148 526.127C200.148 525.667 200.274 525.333 200.483 525.124C200.692 524.915 200.985 524.79 201.236 524.79C201.528 524.79 201.737 524.915 201.821 525.124C201.946 525.333 202.114 525.793 202.406 526.504C202.783 527.674 203.452 528.845 204.33 529.973C205.208 531.102 206.254 532.147 207.425 533.025C208.638 533.945 209.892 534.656 211.23 535.241C212.569 535.826 213.865 536.077 215.203 536.077C216.667 536.077 217.796 535.701 218.591 534.907C219.385 534.112 219.971 533.234 220.389 532.231C220.974 530.768 221.351 529.221 221.518 527.632C221.727 526.044 221.811 524.413 221.811 522.783C221.811 518.853 221.518 515.425 221.016 512.457C220.64 509.53 220.222 507.273 219.845 505.81Z" fill="white"/>
<path d="M243.762 498.577C243.762 498.451 243.72 498.284 243.637 497.992C243.553 497.699 243.47 497.406 243.428 497.072C243.386 496.737 243.302 496.445 243.26 496.194C243.219 495.943 243.177 495.776 243.177 495.734C243.177 495.149 243.511 494.731 244.181 494.48C244.85 494.229 245.351 494.104 245.644 494.104C246.104 494.104 246.355 494.229 246.439 494.48C246.522 494.731 246.564 495.023 246.564 495.274C246.564 497.03 246.69 499.037 246.899 501.378C247.108 503.677 247.401 505.935 247.777 508.109C248.153 510.283 248.572 512.289 249.073 514.045C249.575 515.843 250.119 517.055 250.704 517.766C250.83 517.891 251.164 518.142 251.708 518.518C252.294 518.936 252.544 519.187 252.544 519.354C252.544 519.522 252.461 519.772 252.252 520.023C252.043 520.316 251.708 520.441 251.29 520.441C250.621 520.441 250.035 520.274 249.533 519.94C249.032 519.605 248.655 519.187 248.279 518.686C247.944 518.226 247.652 517.724 247.484 517.222C247.275 516.762 247.15 516.344 247.108 516.094C246.815 515.341 246.439 514.045 245.937 512.122C245.435 510.241 245.059 507.983 244.724 505.349C244.264 506.102 243.511 507.273 242.424 508.861C241.337 510.492 240.166 512.122 238.828 513.794C237.531 515.466 236.235 516.93 234.897 518.226C233.6 519.522 232.513 520.149 231.676 520.149C231.384 520.149 230.965 520.023 230.338 519.773C229.753 519.522 229.46 518.978 229.46 518.1C229.46 517.181 229.669 516.094 230.129 514.756C230.589 513.418 231.175 512.038 231.927 510.575C232.68 509.112 233.516 507.691 234.478 506.186C235.44 504.722 236.402 503.385 237.406 502.214C238.409 501.043 239.371 500.124 240.375 499.413C241.379 498.702 242.257 498.368 243.051 498.368C243.344 498.41 243.553 498.451 243.762 498.577ZM243.93 502.172C243.93 501.838 243.846 501.545 243.637 501.294C243.428 501.043 243.135 500.918 242.759 500.918C241.964 500.918 240.96 501.629 239.748 503.008C238.535 504.388 237.364 506.018 236.193 507.858C235.064 509.697 234.06 511.495 233.266 513.251C232.429 515.007 232.053 516.261 232.053 517.013C232.053 517.139 232.095 517.222 232.136 517.348C232.178 517.473 232.262 517.515 232.387 517.515C232.68 517.515 233.14 517.18 233.851 516.553C234.52 515.884 235.315 515.048 236.151 514.003C236.988 512.958 237.908 511.829 238.828 510.617C239.748 509.405 240.626 508.234 241.379 507.105C242.131 505.977 242.759 504.973 243.26 504.095C243.721 503.092 243.93 502.507 243.93 502.172Z" fill="white"/>
<path d="M261.33 515.76C261.957 515.76 262.5 516.01 263.002 516.47C263.504 516.972 263.713 517.515 263.713 518.142C263.713 518.811 263.462 519.397 263.002 519.857C262.5 520.316 261.957 520.525 261.33 520.525C260.702 520.525 260.159 520.316 259.657 519.857C259.155 519.397 258.946 518.853 258.946 518.142C258.946 517.515 259.197 516.972 259.657 516.47C260.117 516.01 260.702 515.76 261.33 515.76Z" fill="white"/>
<path d="M277.062 515.76C277.69 515.76 278.233 516.01 278.735 516.47C279.237 516.972 279.446 517.515 279.446 518.142C279.446 518.811 279.195 519.397 278.735 519.857C278.233 520.316 277.69 520.525 277.062 520.525C276.435 520.525 275.891 520.316 275.39 519.857C274.888 519.397 274.679 518.853 274.679 518.142C274.679 517.515 274.93 516.972 275.39 516.47C275.891 516.01 276.435 515.76 277.062 515.76Z" fill="white"/>
<path d="M292.824 515.76C293.452 515.76 293.995 516.01 294.497 516.47C294.999 516.972 295.208 517.515 295.208 518.142C295.208 518.811 294.957 519.397 294.497 519.857C293.995 520.316 293.452 520.525 292.824 520.525C292.197 520.525 291.653 520.316 291.152 519.857C290.65 519.397 290.441 518.853 290.441 518.142C290.441 517.515 290.692 516.972 291.152 516.47C291.612 516.01 292.197 515.76 292.824 515.76Z" fill="white"/>
<path d="M341.659 481.813C341.659 482.816 341.408 483.945 340.906 485.157C340.404 486.369 339.401 487.749 337.937 489.296C337.77 489.463 337.477 489.756 337.059 490.174C336.641 490.592 336.181 491.01 335.679 491.47C335.219 491.888 334.759 492.264 334.299 492.599C333.881 492.933 333.588 493.1 333.421 493.1C333.086 493.1 332.835 492.975 332.668 492.724C332.501 492.473 332.417 492.264 332.417 492.097C332.417 491.888 332.501 491.679 332.668 491.512C332.835 491.344 333.253 490.968 333.839 490.425C334.132 490.132 334.55 489.714 335.177 489.129C335.762 488.543 336.39 487.916 336.975 487.206C337.561 486.495 338.104 485.784 338.564 485.032C339.024 484.279 339.233 483.568 339.233 482.899C339.233 482.565 339.15 482.231 338.983 481.98C338.815 481.687 338.439 481.562 337.895 481.562C336.892 481.562 335.679 481.98 334.341 482.732C333.002 483.527 331.664 484.614 330.242 485.951C328.862 487.331 327.482 488.92 326.102 490.717C324.722 492.515 323.551 494.438 322.506 496.445C321.46 498.451 320.624 500.542 319.955 502.674C319.286 504.806 318.993 506.854 318.993 508.861C318.993 510.032 319.16 511.202 319.453 512.331C319.746 513.46 320.247 514.463 320.875 515.341C321.502 516.219 322.338 516.93 323.342 517.431C324.346 517.933 325.6 518.184 327.106 518.184C328.277 518.184 329.49 517.975 330.702 517.557C331.873 517.139 333.002 516.595 334.048 515.968C335.093 515.341 336.055 514.63 336.933 513.836C337.812 513.042 338.564 512.247 339.192 511.453C340.154 510.157 340.823 509.363 341.157 509.07C341.492 508.777 341.826 508.652 342.077 508.652C342.663 508.652 342.914 508.945 342.914 509.572C342.914 509.906 342.454 510.7 341.575 511.913C340.697 513.125 339.484 514.421 337.937 515.759C336.39 517.097 334.55 518.267 332.417 519.312C330.284 520.358 327.984 520.901 325.475 520.901C323.3 520.901 321.627 520.441 320.415 519.438C319.202 518.476 318.282 517.348 317.655 516.135C317.027 514.881 316.651 513.669 316.484 512.456C316.316 511.244 316.233 510.324 316.233 509.781C316.233 507.44 316.567 505.098 317.278 502.674C317.989 500.249 318.951 497.908 320.122 495.65C321.335 493.393 322.673 491.219 324.262 489.212C325.809 487.206 327.44 485.45 329.071 483.986C330.702 482.523 332.375 481.353 334.048 480.475C335.721 479.597 337.268 479.137 338.69 479.137C339.484 479.137 340.195 479.388 340.823 479.806C341.366 480.308 341.659 480.976 341.659 481.813Z" fill="white"/>
<path d="M360.242 498.577C360.242 498.451 360.2 498.284 360.117 497.992C360.033 497.699 359.949 497.406 359.907 497.072C359.866 496.737 359.782 496.445 359.74 496.194C359.698 495.943 359.656 495.776 359.656 495.734C359.656 495.149 359.991 494.731 360.66 494.48C361.329 494.229 361.831 494.104 362.124 494.104C362.584 494.104 362.835 494.229 362.918 494.48C363.002 494.731 363.044 495.023 363.044 495.274C363.044 497.03 363.169 499.037 363.378 501.378C363.588 503.677 363.88 505.935 364.257 508.109C364.633 510.283 365.051 512.289 365.595 514.045C366.097 515.843 366.64 517.055 367.226 517.766C367.351 517.891 367.686 518.142 368.23 518.518C368.815 518.936 369.066 519.187 369.066 519.354C369.066 519.522 368.982 519.772 368.773 520.023C368.564 520.316 368.23 520.441 367.811 520.441C367.142 520.441 366.557 520.274 366.055 519.94C365.553 519.605 365.177 519.187 364.8 518.686C364.466 518.226 364.173 517.724 364.006 517.222C363.797 516.762 363.671 516.344 363.629 516.094C363.337 515.341 362.96 514.045 362.458 512.122C361.998 510.241 361.58 507.983 361.246 505.349C360.786 506.102 360.033 507.273 358.946 508.861C357.858 510.492 356.687 512.122 355.349 513.794C354.053 515.466 352.756 516.93 351.418 518.226C350.122 519.522 349.034 520.149 348.198 520.149C347.905 520.149 347.487 520.023 346.86 519.773C346.274 519.522 345.981 518.978 345.981 518.1C345.981 517.181 346.191 516.094 346.651 514.756C347.111 513.418 347.696 512.038 348.449 510.575C349.16 509.112 350.038 507.691 351 506.186C351.962 504.722 352.924 503.385 353.927 502.214C354.931 501.043 355.935 500.124 356.896 499.413C357.9 498.702 358.778 498.368 359.573 498.368C359.782 498.41 359.991 498.451 360.242 498.577ZM360.409 502.172C360.409 501.838 360.326 501.545 360.117 501.294C359.907 501.043 359.615 500.918 359.238 500.918C358.444 500.918 357.44 501.629 356.227 503.008C355.015 504.388 353.844 506.018 352.714 507.858C351.585 509.697 350.582 511.495 349.787 513.251C348.951 515.007 348.574 516.261 348.574 517.013C348.574 517.139 348.616 517.222 348.658 517.348C348.7 517.473 348.783 517.515 348.909 517.515C349.202 517.515 349.662 517.18 350.373 516.553C351.042 515.884 351.836 515.048 352.673 514.003C353.509 512.958 354.429 511.829 355.349 510.617C356.269 509.405 357.147 508.234 357.9 507.105C358.653 505.977 359.28 504.973 359.782 504.095C360.158 503.092 360.409 502.507 360.409 502.172Z" fill="white"/>
<path d="M376.713 505.057C377.466 504.304 378.302 503.51 379.222 502.674C380.142 501.838 381.146 501.043 382.149 500.333C383.153 499.622 384.24 499.037 385.328 498.577C386.457 498.117 387.544 497.908 388.673 497.908C389.593 497.908 390.346 498.033 390.973 498.326C391.601 498.619 392.103 498.953 392.437 499.329C392.772 499.747 393.023 500.166 393.148 500.625C393.273 501.085 393.357 501.503 393.357 501.921C393.357 502.548 393.19 503.426 392.813 504.513C392.437 505.642 391.893 506.854 391.099 508.192C390.346 509.53 389.384 510.91 388.255 512.373C387.126 513.836 385.746 515.174 384.157 516.428C383.069 517.348 381.731 518.226 380.142 519.104C378.553 519.981 377.089 520.441 375.709 520.525C375.542 525.918 375.626 529.764 375.96 532.105C376.086 532.899 376.253 533.568 376.462 534.112C376.671 534.655 377.047 534.906 377.466 534.906C377.633 534.906 377.926 534.781 378.344 534.572C378.762 534.363 379.055 534.237 379.138 534.237C379.473 534.237 379.64 534.488 379.64 534.99C379.64 535.45 379.348 535.909 378.804 536.369C378.218 536.829 377.591 537.038 376.838 537.038C376.336 537.038 375.876 536.913 375.542 536.704C375.166 536.495 374.873 536.202 374.622 535.868C374.371 535.533 374.162 535.199 374.078 534.906C373.953 534.613 373.869 534.363 373.827 534.195C373.702 533.861 373.576 533.443 373.493 533.025C373.367 532.565 373.284 531.938 373.2 531.102C373.116 530.266 373.033 529.221 372.991 527.966C372.949 526.67 372.907 525.082 372.907 523.159C372.907 521.695 372.949 520.19 372.991 518.644C373.033 517.097 373.116 515.425 373.242 513.585C373.367 511.746 373.493 509.655 373.66 507.356C373.827 505.015 374.036 502.339 374.245 499.288C374.287 498.661 374.371 498.242 374.413 498.033C374.455 497.824 374.622 497.657 374.915 497.49C375.416 497.281 375.918 497.114 376.42 497.072C376.88 497.03 377.173 496.988 377.215 496.988C377.34 496.988 377.507 497.03 377.716 497.072C377.926 497.114 378.051 497.281 378.051 497.574C378.051 497.699 377.967 498.117 377.842 498.87C377.717 499.622 377.549 500.416 377.382 501.294C377.215 502.172 377.047 503.008 376.922 503.803C376.88 504.388 376.797 504.889 376.713 505.057ZM376.378 508.778C376.253 509.572 376.169 510.241 376.127 510.784C376.086 511.328 376.044 511.913 376.002 512.54C375.96 513.167 375.918 513.92 375.876 514.756C375.835 515.592 375.751 516.762 375.709 518.142C377.507 517.933 379.306 517.18 381.104 515.968C382.902 514.756 384.491 513.334 385.871 511.704C387.251 510.073 388.381 508.401 389.217 506.645C390.053 504.89 390.513 503.343 390.513 502.047C390.513 501.587 390.346 501.127 390.053 500.667C389.761 500.207 389.175 499.998 388.381 499.998C387.586 499.998 386.666 500.291 385.579 500.876C384.491 501.461 383.404 502.214 382.275 503.092C381.146 503.97 380.058 504.931 379.013 505.935C377.926 507.022 377.089 507.941 376.378 508.778Z" fill="white"/>
<path d="M402.259 492.724C402.259 492.432 402.218 491.888 402.176 491.052C402.134 490.216 402.092 489.673 402.092 489.38C402.092 489.004 402.218 488.669 402.469 488.377C402.719 488.084 403.012 487.833 403.347 487.666C403.681 487.457 404.016 487.331 404.309 487.248C404.601 487.164 404.852 487.122 404.936 487.122C405.396 487.122 405.647 487.248 405.689 487.54C405.73 487.833 405.772 488 405.772 488.126L405.187 492.975C405.061 493.728 404.978 494.815 404.936 496.278C404.894 497.741 404.81 499.037 404.769 500.124C405.103 499.957 405.605 499.748 406.274 499.455C406.943 499.163 407.612 498.87 408.407 498.619C409.16 498.326 409.954 498.076 410.707 497.867C411.46 497.658 412.171 497.532 412.798 497.532C412.923 497.532 413.091 497.574 413.3 497.574C413.509 497.616 413.634 497.741 413.634 498.034C413.634 498.326 413.509 498.577 413.3 498.828C413.049 499.079 412.798 499.33 412.547 499.581C412.254 499.831 412.003 500.04 411.753 500.166C411.502 500.291 411.334 500.375 411.293 500.375C411.167 500.375 411.042 500.333 410.833 500.291C410.623 500.25 410.498 500.208 410.372 500.208C409.912 500.208 409.076 500.459 407.905 500.96C406.734 501.462 405.647 501.964 404.769 502.507C404.727 503.636 404.685 505.099 404.727 506.938C404.769 508.736 404.894 511.035 405.103 513.753C405.145 514.254 405.229 514.798 405.312 515.425C405.396 516.01 405.521 516.554 405.689 517.056C405.856 517.557 406.107 517.933 406.441 518.31C406.776 518.644 407.278 518.811 407.905 518.811C408.365 518.811 408.783 518.686 409.202 518.435C409.62 518.184 409.954 517.85 410.205 517.515C410.498 517.139 410.749 516.805 410.916 516.47C411.125 516.136 411.251 515.885 411.376 515.718C411.836 514.965 412.129 514.547 412.213 514.338C412.338 514.171 412.505 514.087 412.798 514.087C413.091 514.087 413.258 514.171 413.383 514.38C413.509 514.589 413.551 514.798 413.551 515.007C413.551 515.341 413.384 515.843 413.091 516.512C412.798 517.181 412.338 517.808 411.794 518.477C411.251 519.146 410.582 519.689 409.787 520.191C408.992 520.651 408.114 520.902 407.152 520.902C406.232 520.902 405.521 520.693 404.978 520.275C404.434 519.857 404.016 519.313 403.681 518.686C403.389 518.059 403.138 517.348 403.012 516.554C402.887 515.759 402.761 515.007 402.719 514.338C402.51 512.708 402.343 510.952 402.301 509.154C402.259 507.357 402.176 505.601 402.134 503.97C401.967 504.096 401.59 504.305 401.088 504.597C400.545 504.89 399.959 505.266 399.374 505.642C398.788 506.061 397.994 506.52 397.032 507.106C396.739 507.106 396.488 506.939 396.321 506.604C396.112 506.27 396.028 505.935 396.028 505.684C396.028 505.475 396.237 505.224 396.614 504.932C398.077 504.012 399.207 503.343 399.959 502.883C400.712 502.423 401.465 502.005 402.218 501.587V492.724H402.259Z" fill="white"/>
<path d="M437.61 516.972C438.07 516.972 438.279 517.181 438.279 517.557C438.279 517.766 438.07 518.184 437.652 518.728C437.234 519.313 436.69 519.564 436.063 519.564C434.892 519.564 434.055 518.769 433.637 517.181C433.219 515.592 432.842 513.251 432.466 510.199C431.671 511.202 430.961 512.122 430.333 512.916C429.706 513.711 429.079 514.463 428.493 515.132C427.908 515.801 427.28 516.47 426.653 517.097C426.026 517.724 425.315 518.393 424.437 519.146C423.517 519.94 422.889 520.4 422.471 520.567C422.053 520.692 421.718 520.776 421.467 520.776C420.255 520.776 419.586 520.358 419.377 519.522C419.167 518.686 419.084 517.933 419.084 517.264C419.084 517.097 419.126 516.261 419.167 514.756C419.209 513.251 419.293 511.621 419.377 509.823C419.46 508.025 419.544 506.353 419.627 504.806C419.711 503.259 419.753 502.256 419.753 501.88C419.795 500.96 420.213 500.333 420.924 499.915C421.677 499.497 422.22 499.33 422.638 499.33C423.308 499.33 423.642 499.58 423.642 500.082C423.642 500.291 423.558 500.709 423.391 501.336C423.224 501.922 423.098 502.298 423.057 502.465C422.931 503.092 422.806 503.928 422.638 504.932C422.471 505.935 422.346 507.105 422.22 508.36C422.095 509.656 422.011 510.993 421.928 512.415C421.844 513.836 421.802 515.174 421.802 516.512C421.802 516.721 421.844 517.013 421.886 517.306C421.928 517.599 422.137 517.766 422.471 517.766C422.638 517.766 422.931 517.557 423.349 517.181C423.768 516.763 424.228 516.345 424.688 515.885C425.189 515.425 425.608 515.007 426.026 514.589C426.402 514.171 426.695 513.878 426.779 513.794C427.239 513.293 427.74 512.666 428.368 511.955C428.953 511.244 429.497 510.534 430.041 509.781C430.542 509.029 431.002 508.318 431.379 507.607C431.755 506.896 431.922 506.311 431.922 505.768C431.922 504.639 431.922 503.719 431.881 503.05C431.839 502.381 431.797 501.838 431.755 501.378C431.713 500.96 431.671 500.584 431.63 500.249C431.588 499.957 431.588 499.622 431.588 499.288C431.588 498.703 431.964 498.243 432.675 497.825C433.428 497.448 433.972 497.239 434.39 497.239C434.892 497.239 435.143 497.532 435.143 498.159C435.143 498.326 435.101 498.702 435.017 499.246C434.933 499.831 434.892 500.166 434.892 500.333C434.766 501.294 434.724 502.089 434.724 502.716C434.724 503.343 434.724 503.97 434.724 504.597C434.724 505.6 434.766 506.855 434.85 508.276C434.933 509.697 435.059 511.035 435.226 512.373C435.393 513.669 435.603 514.798 435.853 515.676C436.104 516.595 436.439 517.055 436.815 517.055L437.61 516.972Z" fill="white"/>
<path d="M450.27 510.575C450.897 508.568 451.524 506.771 452.152 505.14C452.779 503.51 453.783 501.838 455.121 500.124C455.915 499.12 456.836 498.201 457.839 497.406C458.885 496.612 459.847 496.194 460.808 496.194C461.728 496.194 462.397 496.486 462.816 497.114C463.234 497.741 463.443 498.41 463.443 499.079C463.443 499.706 463.234 500.124 462.858 500.291C462.439 500.5 462.147 500.583 461.937 500.583C461.436 500.583 461.059 500.458 460.85 500.165C460.641 499.873 460.432 499.58 460.348 499.329C460.223 498.911 460.139 498.702 460.097 498.619C460.056 498.535 459.972 498.493 459.847 498.493C459.679 498.493 459.219 498.786 458.425 499.371C457.672 499.956 456.752 501.043 455.665 502.632C454.912 503.761 454.326 504.889 453.908 505.935C453.49 507.022 453.155 508.025 452.946 508.903C452.695 509.823 452.57 510.575 452.528 511.202C452.486 511.829 452.444 512.206 452.444 512.289C452.444 512.707 452.486 513.334 452.57 514.254C452.653 515.174 452.821 516.052 453.114 516.888C453.448 518.017 453.615 518.644 453.615 518.769C453.615 519.062 453.448 519.438 453.072 519.898C452.695 520.358 452.319 520.567 451.901 520.567C451.273 520.567 450.855 520.358 450.646 519.898C450.437 519.438 450.186 518.602 449.852 517.348C449.392 515.759 448.932 514.17 448.388 512.624C447.886 511.077 447.384 509.655 446.841 508.359C446.339 507.063 445.837 505.976 445.335 505.099C444.833 504.179 444.457 503.552 444.206 503.217C444.08 503.092 443.83 502.883 443.453 502.548C443.035 502.214 442.868 501.963 442.868 501.879C442.868 501.545 443.202 501.169 443.871 500.709C444.54 500.291 445.084 500.082 445.502 500.082C446.004 500.082 446.422 500.333 446.757 500.792C447.05 501.294 447.342 501.88 447.635 502.632C447.761 502.966 447.928 503.51 448.179 504.262C448.43 505.015 448.681 505.809 448.932 506.645C449.182 507.481 449.433 508.276 449.684 509.028C449.977 509.781 450.144 510.282 450.27 510.575Z" fill="white"/>
<path d="M468.206 511.955C468.164 512.707 468.164 513.418 468.248 514.17C468.331 514.923 468.499 515.592 468.791 516.219C469.084 516.846 469.46 517.348 469.92 517.766C470.38 518.184 471.05 518.351 471.844 518.351C472.513 518.351 473.224 518.225 473.893 517.933C474.562 517.64 475.231 517.348 475.901 516.971C476.57 516.595 477.155 516.177 477.741 515.759C478.326 515.299 478.828 514.923 479.288 514.547C479.581 514.338 479.915 514.045 480.292 513.752C480.71 513.46 481.044 513.292 481.295 513.292C481.672 513.292 481.881 513.543 481.881 513.961C481.881 514.296 481.714 514.672 481.421 515.006C481.128 515.383 480.71 515.801 480.166 516.219C478.159 518.058 476.528 519.229 475.148 519.814C473.768 520.399 472.555 520.65 471.384 520.65C470.088 520.65 469.042 520.358 468.248 519.814C467.453 519.229 466.826 518.56 466.408 517.724C465.989 516.888 465.697 516.01 465.571 515.09C465.446 514.17 465.362 513.334 465.362 512.582C465.362 511.118 465.529 509.404 465.864 507.523C466.198 505.642 466.742 503.844 467.453 502.172C468.164 500.5 469.042 499.078 470.129 497.908C471.217 496.737 472.471 496.152 473.977 496.152C474.562 496.152 475.148 496.319 475.817 496.695C476.486 497.072 476.779 497.866 476.779 499.12C476.779 500.082 476.57 501.127 476.193 502.256C475.775 503.384 475.231 504.513 474.479 505.642C473.726 506.771 472.848 507.899 471.76 508.986C470.715 510.115 469.544 511.077 468.206 511.955ZM468.206 509.112C469 508.61 469.753 507.941 470.506 507.063C471.259 506.227 471.886 505.349 472.471 504.429C473.057 503.51 473.475 502.674 473.851 501.838C474.186 501.001 474.353 500.332 474.353 499.831C474.353 499.705 474.311 499.455 474.228 499.078C474.144 498.66 473.851 498.493 473.35 498.493C472.764 498.493 472.22 498.869 471.677 499.58C471.133 500.333 470.631 501.21 470.171 502.297C469.711 503.384 469.335 504.555 469 505.809C468.666 507.063 468.373 508.15 468.206 509.112Z" fill="white"/>
<path d="M524.249 499.33C525.503 502.925 526.8 506.019 528.18 508.611C529.56 511.202 530.898 513.376 532.236 515.049C533.574 516.721 534.871 517.975 536.167 518.811C537.464 519.647 538.593 520.024 539.638 520.024C540.475 520.024 541.186 519.856 541.813 519.564C542.398 519.271 542.858 518.937 543.151 518.686C543.611 518.226 543.904 517.933 544.029 517.85C544.155 517.724 544.322 517.682 544.489 517.682C544.949 517.682 545.158 517.891 545.158 518.268C545.158 518.435 545.033 518.728 544.824 519.146C544.615 519.564 544.238 520.024 543.82 520.483C543.36 520.943 542.775 521.32 541.98 521.696C541.227 522.03 540.307 522.197 539.22 522.197C537.673 522.197 536.209 521.821 534.829 521.027C533.449 520.233 532.153 519.229 530.982 517.975C529.811 516.721 528.765 515.3 527.803 513.711C526.841 512.122 525.963 510.534 525.21 508.945C524.458 507.356 523.789 505.851 523.203 504.43C522.618 503.009 522.199 501.838 521.823 500.876C520.819 501.462 519.69 502.089 518.519 502.841C517.348 503.594 516.177 504.305 515.09 505.015C513.961 505.726 512.999 506.395 512.121 507.064C511.243 507.733 510.615 508.234 510.197 508.652C508.023 512.331 506.141 515.3 504.468 517.557C502.795 519.815 501.373 521.487 500.244 522.615C499.491 523.41 498.906 523.87 498.446 524.037C497.986 524.162 497.526 524.246 496.982 524.246C496.564 524.246 496.146 524.204 495.686 524.079C495.226 523.953 495.017 523.786 495.017 523.493C495.017 523.452 495.184 523.243 495.56 522.95C495.937 522.657 496.146 522.448 496.188 522.406C498.404 520.525 500.411 518.435 502.21 516.052C504.008 513.711 505.639 511.286 507.061 508.82C508.483 506.353 509.737 503.928 510.824 501.504C511.912 499.079 512.79 496.863 513.459 494.856C514.128 492.85 514.63 491.094 515.006 489.631C515.341 488.168 515.508 487.122 515.508 486.495C515.508 486.37 515.466 486.161 515.425 485.826C515.383 485.492 515.383 485.241 515.425 485.158C515.55 484.948 515.801 484.698 516.219 484.489C516.637 484.28 517.014 484.112 517.265 483.987C517.223 483.82 517.139 483.527 517.056 483.151C516.972 482.733 516.888 482.357 516.805 481.897C516.721 481.479 516.637 481.061 516.554 480.642C516.47 480.266 516.428 479.974 516.428 479.89C516.428 479.597 516.554 479.347 516.805 479.096C517.056 478.845 517.348 478.594 517.641 478.385C517.934 478.176 518.227 477.967 518.519 477.883C518.812 477.758 518.979 477.716 519.105 477.716C519.314 477.716 519.439 477.8 519.481 477.967C519.523 478.134 519.523 478.26 519.523 478.385C519.523 479.012 519.607 479.974 519.816 481.228C520.025 482.524 520.276 483.987 520.61 485.743C520.945 487.457 521.363 489.338 521.865 491.387C522.325 493.435 522.91 495.484 523.538 497.616C525.085 496.78 526.632 496.027 528.221 495.442C529.811 494.856 531.274 494.355 532.613 493.937C533.951 493.56 535.122 493.226 536.084 493.059C537.087 492.85 537.798 492.766 538.258 492.766C539.011 492.766 539.345 493.059 539.345 493.602C539.345 494.062 539.178 494.355 538.844 494.48C538.509 494.606 538.007 494.773 537.296 494.856C535.833 495.149 534.411 495.525 533.031 495.943C531.651 496.403 530.396 496.863 529.225 497.323C528.054 497.783 527.051 498.201 526.214 498.619C525.42 498.828 524.75 499.121 524.249 499.33ZM521.07 498.661C520.778 497.741 520.527 496.905 520.318 496.069C520.108 495.233 519.858 494.397 519.648 493.519C519.439 492.641 519.188 491.679 518.979 490.676C518.77 489.673 518.477 488.46 518.143 487.122C517.976 487.958 517.725 489.045 517.348 490.383C516.972 491.721 516.554 493.142 516.052 494.689C515.592 496.236 515.006 497.825 514.337 499.497C513.668 501.169 512.957 502.758 512.163 504.305C512.79 503.928 513.334 503.552 513.877 503.218C514.379 502.883 514.965 502.507 515.592 502.131C516.219 501.713 516.972 501.253 517.85 500.709C518.687 500.124 519.774 499.455 521.07 498.661Z" fill="white"/>
<path d="M554.78 498.577C556.202 497.95 557.833 497.406 559.632 496.863C561.43 496.361 563.019 496.11 564.399 496.11C564.524 496.11 564.734 496.11 565.026 496.152C565.319 496.194 565.486 496.319 565.486 496.528C565.486 496.654 565.445 496.821 565.361 497.114C565.277 497.406 565.194 497.615 565.068 497.699C564.943 497.824 564.608 498.033 564.106 498.368C563.563 498.702 563.144 498.87 562.852 498.87C562.726 498.87 562.517 498.786 562.224 498.66C561.932 498.535 561.681 498.451 561.597 498.451C561.137 498.451 560.217 498.66 558.879 499.037C557.541 499.413 556.161 499.998 554.78 500.751C554.822 502.465 554.906 504.304 554.948 506.311C554.99 508.318 555.115 510.324 555.24 512.373C555.366 514.379 555.533 516.344 555.701 518.267C555.868 520.19 556.077 521.946 556.286 523.451C556.621 525.5 556.997 527.13 557.415 528.384C557.792 529.639 558.21 530.6 558.628 531.269C559.046 531.938 559.464 532.398 559.924 532.649C560.343 532.858 560.719 532.983 560.97 532.983C561.137 532.983 561.472 532.899 561.974 532.732C562.434 532.565 562.768 532.481 562.852 532.481C563.312 532.481 563.521 532.69 563.521 533.067C563.521 533.359 563.27 533.652 562.768 534.028C562.266 534.404 561.597 534.572 560.803 534.572C559.381 534.572 558.21 534.028 557.29 532.941C556.37 531.854 555.617 530.642 555.031 529.22C554.446 527.841 554.07 526.461 553.819 525.04C553.568 523.66 553.4 522.615 553.275 521.946C552.982 520.19 552.773 518.226 552.648 516.135C552.522 514.003 552.397 511.997 552.271 510.032C552.146 508.109 552.104 506.395 552.062 504.89C552.02 503.384 552.02 502.381 552.02 501.88C551.853 502.005 551.477 502.214 550.975 502.507C550.431 502.799 549.888 503.134 549.302 503.426C548.717 503.719 548.215 504.012 547.713 504.262C547.253 504.513 546.96 504.639 546.918 504.639C546.626 504.639 546.333 504.513 546.082 504.221C545.789 503.928 545.664 503.677 545.664 503.468C545.664 503.343 545.706 503.259 545.789 503.134C545.873 503.008 546.124 502.841 546.5 502.59C546.877 502.339 547.546 501.963 548.424 501.545C549.302 501.085 550.515 500.416 552.062 499.58C552.062 497.072 552.146 494.563 552.355 492.055C552.564 489.547 553.15 487.206 554.111 485.032C554.279 484.655 554.488 484.196 554.78 483.694C555.073 483.192 555.408 482.732 555.826 482.273C556.244 481.854 556.746 481.478 557.331 481.186C557.917 480.893 558.544 480.726 559.297 480.726C559.464 480.726 559.799 480.809 560.301 480.935C560.803 481.06 561.053 481.478 561.053 482.063C561.053 482.691 560.844 483.234 560.468 483.652C560.05 484.07 559.757 484.279 559.548 484.279C559.422 484.279 559.255 484.237 559.088 484.112C558.879 483.987 558.712 483.945 558.628 483.945C558.335 483.945 558.001 484.154 557.582 484.614C557.164 485.074 556.746 485.868 556.37 486.955C555.951 488.084 555.617 489.547 555.366 491.428C554.948 493.393 554.78 495.734 554.78 498.577Z" fill="white"/>
<path d="M573.19 510.575C573.817 508.568 574.445 506.771 575.072 505.14C575.699 503.51 576.703 501.838 578.041 500.124C578.836 499.12 579.756 498.201 580.759 497.406C581.763 496.612 582.767 496.194 583.729 496.194C584.649 496.194 585.318 496.486 585.736 497.114C586.154 497.741 586.363 498.41 586.363 499.079C586.363 499.706 586.154 500.124 585.778 500.291C585.36 500.5 585.067 500.583 584.858 500.583C584.356 500.583 583.98 500.458 583.729 500.165C583.52 499.873 583.352 499.58 583.227 499.329C583.101 498.911 583.018 498.702 582.976 498.619C582.934 498.535 582.85 498.493 582.725 498.493C582.558 498.493 582.098 498.786 581.303 499.371C580.55 499.956 579.63 501.043 578.543 502.632C577.79 503.761 577.205 504.889 576.786 505.935C576.368 507.022 576.034 508.025 575.825 508.903C575.616 509.823 575.448 510.575 575.406 511.202C575.365 511.829 575.323 512.206 575.323 512.289C575.323 512.707 575.365 513.334 575.448 514.254C575.532 515.174 575.699 516.052 575.992 516.888C576.327 518.017 576.494 518.644 576.494 518.769C576.494 519.062 576.326 519.438 575.95 519.898C575.574 520.358 575.197 520.567 574.779 520.567C574.152 520.567 573.734 520.358 573.566 519.898C573.357 519.438 573.106 518.602 572.772 517.348C572.312 515.759 571.852 514.17 571.308 512.624C570.806 511.077 570.304 509.655 569.761 508.359C569.259 507.063 568.757 505.976 568.255 505.099C567.795 504.179 567.377 503.552 567.084 503.217C566.959 503.092 566.708 502.883 566.332 502.548C565.913 502.214 565.746 501.963 565.746 501.879C565.746 501.545 566.081 501.169 566.75 500.709C567.419 500.291 567.963 500.082 568.381 500.082C568.883 500.082 569.301 500.333 569.635 500.792C569.928 501.294 570.263 501.88 570.514 502.632C570.639 502.966 570.806 503.51 571.057 504.262C571.308 505.015 571.559 505.809 571.81 506.645C572.061 507.481 572.312 508.276 572.563 509.028C572.897 509.781 573.065 510.282 573.19 510.575Z" fill="white"/>
<path d="M591.338 509.112C591.338 509.697 591.338 510.492 591.38 511.537C591.422 512.582 591.506 513.627 591.673 514.672C591.84 515.717 592.091 516.679 592.384 517.473C592.677 518.309 593.137 518.727 593.68 518.769C594.349 518.895 594.767 518.978 594.893 519.02C595.018 519.062 595.06 519.229 595.06 519.438C595.06 519.94 594.768 520.316 594.182 520.567C593.597 520.818 593.053 520.943 592.593 520.943C591.966 520.943 591.464 520.776 591.087 520.483C590.711 520.191 590.418 519.773 590.209 519.354C589.958 518.895 589.791 518.435 589.707 517.933C589.582 517.431 589.498 517.055 589.456 516.762C589.289 516.01 589.164 515.174 589.08 514.212C588.996 513.251 588.913 512.247 588.871 511.244C588.829 510.241 588.787 509.237 588.745 508.276C588.704 507.314 588.704 506.478 588.704 505.809C588.704 505.475 588.704 504.973 588.704 504.346C588.704 503.719 588.745 503.05 588.787 502.381C588.829 501.712 588.913 501.085 589.038 500.5C589.164 499.915 589.289 499.58 589.456 499.413C589.665 499.204 590.042 498.953 590.46 498.702C590.92 498.452 591.38 498.326 591.84 498.326C592.426 498.326 592.676 498.577 592.676 499.079C592.676 499.33 592.593 499.706 592.384 500.333C592.175 500.918 592.049 501.294 592.007 501.462C591.84 502.256 591.673 503.217 591.547 504.388C591.38 505.642 591.338 507.189 591.338 509.112ZM592.175 490.09C592.175 490.383 592.175 490.676 592.175 490.927C592.175 491.136 592.216 491.386 592.258 491.679C592.258 491.804 592.3 491.972 592.342 492.139C592.384 492.348 592.426 492.515 592.426 492.599C592.426 492.766 592.342 492.933 592.133 493.1C591.924 493.268 591.589 493.351 591.129 493.351C590.795 493.351 590.544 493.309 590.335 493.226C590.125 493.142 589.958 492.891 589.875 492.473C589.749 492.055 589.665 491.428 589.624 490.592C589.582 489.756 589.54 488.627 589.54 487.164C589.54 486.662 589.707 486.244 590.084 485.91C590.46 485.617 591.129 485.45 592.091 485.45C592.258 485.45 592.426 485.492 592.593 485.575C592.76 485.659 592.844 485.784 592.844 485.952C592.844 486.244 592.802 486.579 592.676 486.955C592.551 487.373 592.467 487.707 592.342 487.958C592.217 488.418 592.175 488.794 592.175 489.129C592.175 489.505 592.175 489.798 592.175 490.09Z" fill="white"/>
<path d="M613.541 510.575C613.876 510.241 614.168 510.073 614.377 510.073C614.503 510.073 614.628 510.115 614.796 510.199C614.963 510.282 615.047 510.491 615.047 510.826C615.047 511.035 614.754 511.704 614.21 512.749C613.625 513.794 612.872 514.923 611.868 516.052C610.865 517.222 609.735 518.267 608.481 519.187C607.184 520.107 605.888 520.609 604.508 520.609C602.668 520.609 601.455 519.981 600.744 518.769C600.075 517.557 599.74 516.01 599.74 514.212C599.74 512.206 600.075 510.199 600.786 508.109C601.497 506.018 602.417 504.179 603.504 502.507C604.633 500.834 605.804 499.455 607.143 498.41C608.439 497.364 609.652 496.821 610.823 496.821C611.408 496.821 611.868 496.946 612.286 497.197C612.705 497.448 612.872 497.824 612.872 498.242C612.872 498.869 612.579 499.497 611.994 500.124C611.408 500.751 610.865 501.043 610.405 501.043C609.986 501.043 609.819 500.918 609.819 500.625C609.819 500.5 609.903 500.291 610.112 499.915C610.321 499.538 610.405 499.287 610.405 499.204C610.405 499.037 610.279 498.953 610.07 498.953C609.652 498.953 609.066 499.371 608.23 500.165C607.394 501.002 606.599 502.089 605.763 503.468C604.926 504.848 604.215 506.436 603.588 508.192C602.961 509.948 602.668 511.787 602.668 513.627C602.668 513.961 602.668 514.379 602.71 514.923C602.751 515.425 602.835 515.926 603.002 516.428C603.17 516.93 603.421 517.348 603.713 517.724C604.006 518.1 604.424 518.267 604.968 518.267C605.888 518.267 606.766 517.933 607.603 517.306C608.439 516.637 609.485 515.592 610.739 514.129L613.541 510.575Z" fill="white"/>
<path d="M631.232 498.577C631.232 498.451 631.19 498.284 631.107 497.992C631.023 497.699 630.939 497.406 630.898 497.072C630.856 496.737 630.772 496.445 630.73 496.194C630.688 495.943 630.647 495.776 630.647 495.734C630.647 495.149 630.981 494.731 631.65 494.48C632.319 494.229 632.821 494.104 633.114 494.104C633.574 494.104 633.825 494.229 633.909 494.48C633.992 494.731 634.034 495.023 634.034 495.274C634.034 497.03 634.16 499.037 634.369 501.378C634.578 503.677 634.87 505.935 635.247 508.109C635.623 510.283 636.041 512.289 636.585 514.045C637.087 515.843 637.631 517.055 638.216 517.766C638.341 517.891 638.676 518.142 639.22 518.518C639.805 518.936 640.056 519.187 640.056 519.354C640.056 519.522 639.972 519.772 639.763 520.023C639.554 520.316 639.22 520.441 638.801 520.441C638.132 520.441 637.547 520.274 637.045 519.94C636.543 519.605 636.167 519.187 635.79 518.686C635.456 518.226 635.163 517.724 634.996 517.222C634.787 516.762 634.661 516.344 634.62 516.094C634.327 515.341 633.95 514.045 633.449 512.122C632.989 510.241 632.57 507.983 632.236 505.349C631.776 506.102 631.023 507.273 629.936 508.861C628.848 510.492 627.677 512.122 626.339 513.794C625.043 515.466 623.746 516.93 622.408 518.226C621.112 519.522 620.024 520.149 619.188 520.149C618.895 520.149 618.477 520.023 617.892 519.773C617.306 519.522 617.013 518.978 617.013 518.1C617.013 517.181 617.223 516.094 617.683 514.756C618.143 513.418 618.728 512.038 619.481 510.575C620.192 509.112 621.07 507.691 622.032 506.186C622.994 504.722 623.956 503.385 624.959 502.214C625.963 501.043 626.967 500.124 627.928 499.413C628.932 498.702 629.81 498.368 630.605 498.368C630.814 498.41 631.023 498.451 631.232 498.577ZM631.399 502.172C631.399 501.838 631.316 501.545 631.107 501.294C630.898 501.043 630.605 500.918 630.228 500.918C629.434 500.918 628.43 501.629 627.217 503.008C626.005 504.388 624.834 506.018 623.705 507.858C622.575 509.697 621.572 511.495 620.777 513.251C619.941 515.007 619.564 516.261 619.564 517.013C619.564 517.139 619.606 517.222 619.648 517.348C619.69 517.473 619.774 517.515 619.899 517.515C620.192 517.515 620.652 517.18 621.363 516.553C622.032 515.884 622.826 515.048 623.663 514.003C624.499 512.958 625.419 511.829 626.339 510.617C627.259 509.405 628.137 508.234 628.89 507.105C629.643 505.977 630.27 504.973 630.772 504.095C631.149 503.092 631.399 502.507 631.399 502.172Z" fill="white"/>
<path d="M655.654 509.028C655.654 509.154 655.529 509.321 655.278 509.53C655.027 509.739 654.734 509.99 654.4 510.199C654.065 510.45 653.731 510.617 653.396 510.742C653.061 510.868 652.811 510.951 652.727 510.951C652.35 510.951 651.849 510.659 651.221 510.115C650.636 509.53 650.259 508.778 650.092 507.816C649.967 507.147 649.925 506.227 649.883 505.099C649.841 503.97 649.841 503.008 649.841 502.214C649.841 500.416 649.883 498.493 649.925 496.487C649.967 494.48 650.05 492.599 650.176 490.885C650.301 489.171 650.385 487.707 650.469 486.495C650.552 485.324 650.636 484.614 650.761 484.363C650.803 484.196 651.012 484.029 651.305 483.903C651.598 483.778 651.932 483.652 652.267 483.569C652.601 483.485 652.936 483.401 653.27 483.36C653.563 483.318 653.772 483.276 653.898 483.276C654.274 483.276 654.483 483.485 654.483 483.861C654.483 483.903 654.441 484.196 654.358 484.656C654.274 485.157 654.191 485.659 654.107 486.286C654.023 486.871 653.94 487.457 653.856 488.042C653.772 488.627 653.731 489.003 653.731 489.212C653.27 492.557 653.02 495.107 652.936 496.863C652.852 498.619 652.81 499.998 652.81 500.96C652.81 501.42 652.81 502.047 652.852 502.883C652.894 503.719 652.936 504.513 653.061 505.35C653.187 506.186 653.354 506.896 653.605 507.523C653.856 508.151 654.232 508.485 654.776 508.527C655.361 508.61 655.654 508.778 655.654 509.028ZM659 520.776C659 520.943 658.874 521.152 658.665 521.445C658.456 521.737 657.996 521.863 657.369 521.863C656.449 521.863 655.696 521.612 655.111 521.11C654.525 520.609 654.065 519.982 653.689 519.271C653.354 518.56 653.103 517.849 652.978 517.139C652.852 516.428 652.769 515.885 652.769 515.467C652.769 514.965 653.061 514.589 653.689 514.38C653.898 514.338 654.316 514.212 654.818 514.045C655.362 513.878 655.696 513.794 655.863 513.794C656.24 513.794 656.449 514.003 656.449 514.463C656.449 514.63 656.449 515.007 656.407 515.592C656.365 516.177 656.407 516.512 656.449 516.595C656.491 517.181 656.658 517.766 656.867 518.435C657.076 519.104 657.452 519.564 657.996 519.856C658.456 520.149 658.707 520.316 658.791 520.358C658.958 520.4 659 520.567 659 520.776Z" fill="white"/>
<path d="M185.934 376.382C185.934 376.633 185.893 376.842 185.809 377.009C185.725 377.218 185.558 377.344 185.349 377.469C185.14 377.595 184.805 377.678 184.429 377.762C184.052 377.845 183.551 377.887 182.965 377.887C182.171 377.887 181.543 377.845 181.041 377.762C180.54 377.678 180.163 377.511 179.912 377.302C179.661 377.093 179.452 376.8 179.327 376.508L163.31 348.539V376.508C163.31 376.717 163.268 376.884 163.184 377.093C163.101 377.302 162.933 377.427 162.724 377.511C162.515 377.595 162.223 377.678 161.846 377.762C161.47 377.845 161.01 377.887 160.466 377.887C159.922 377.887 159.462 377.845 159.086 377.762C158.71 377.678 158.417 377.595 158.166 377.511C157.957 377.427 157.79 377.26 157.706 377.093C157.622 376.926 157.581 376.717 157.581 376.508V322.871C157.581 322.62 157.622 322.453 157.706 322.285C157.79 322.118 157.957 321.993 158.166 321.867C158.375 321.784 158.71 321.658 159.086 321.617C159.462 321.533 159.922 321.491 160.466 321.491C161.01 321.491 161.512 321.533 161.846 321.617C162.223 321.7 162.515 321.784 162.724 321.867C162.933 321.951 163.101 322.118 163.184 322.285C163.268 322.453 163.31 322.662 163.31 322.871V347.703L178.741 322.871C178.867 322.62 179.034 322.411 179.201 322.244C179.369 322.076 179.62 321.951 179.87 321.826C180.121 321.742 180.456 321.658 180.832 321.575C181.209 321.533 181.669 321.491 182.254 321.491C182.84 321.491 183.3 321.533 183.676 321.617C184.052 321.7 184.303 321.784 184.554 321.909C184.763 322.035 184.931 322.16 184.972 322.327C185.056 322.494 185.098 322.703 185.098 322.871C185.098 323.247 185.014 323.623 184.889 323.999C184.722 324.376 184.471 324.877 184.052 325.546L169.625 347.703L185.182 374.208C185.558 374.961 185.809 375.462 185.893 375.755C185.893 375.964 185.934 376.215 185.934 376.382Z" fill="#FFD200"/>
<path d="M217.547 374.498C217.547 374.999 217.505 375.459 217.463 375.877C217.421 376.253 217.338 376.588 217.212 376.839C217.087 377.09 216.961 377.299 216.836 377.382C216.71 377.508 216.543 377.549 216.334 377.549H195.424C194.922 377.549 194.42 377.34 193.96 376.881C193.5 376.421 193.25 375.668 193.25 374.539V324.707C193.25 323.578 193.459 322.784 193.96 322.366C194.42 321.906 194.922 321.697 195.424 321.697H216.083C216.25 321.697 216.418 321.739 216.585 321.864C216.71 321.989 216.836 322.157 216.919 322.407C217.003 322.658 217.087 322.993 217.129 323.369C217.17 323.745 217.212 324.247 217.212 324.832C217.212 325.334 217.17 325.794 217.129 326.212C217.087 326.588 217.003 326.922 216.919 327.173C216.836 327.424 216.71 327.591 216.585 327.717C216.459 327.842 216.292 327.884 216.083 327.884H199.062V345.401H213.658C213.825 345.401 213.992 345.484 214.159 345.61C214.285 345.735 214.41 345.902 214.536 346.153C214.619 346.362 214.703 346.697 214.745 347.115C214.787 347.533 214.829 347.993 214.829 348.536C214.829 349.038 214.787 349.498 214.745 349.874C214.703 350.25 214.619 350.543 214.536 350.794C214.452 351.003 214.327 351.17 214.159 351.295C214.034 351.379 213.867 351.463 213.658 351.463H199.062V371.446H216.334C216.501 371.446 216.669 371.488 216.836 371.613C216.961 371.738 217.129 371.906 217.212 372.156C217.338 372.407 217.421 372.7 217.463 373.118C217.547 373.452 217.547 373.954 217.547 374.498Z" fill="#FFD200"/>
<path d="M259.911 374.497C259.911 375.083 259.828 375.543 259.702 375.961C259.535 376.379 259.368 376.713 259.117 376.964C258.866 377.215 258.615 377.424 258.28 377.507C257.988 377.633 257.695 377.675 257.36 377.675H255.437C254.851 377.675 254.308 377.591 253.848 377.424C253.388 377.257 252.969 376.964 252.551 376.546C252.133 376.128 251.757 375.542 251.338 374.832C250.92 374.121 250.502 373.201 250.042 372.073L236.743 340.258C236.032 338.628 235.363 336.914 234.652 335.116C233.941 333.319 233.272 331.563 232.687 329.849H232.603C232.645 331.939 232.687 334.029 232.687 336.203C232.729 338.377 232.729 340.509 232.729 342.641V376.379C232.729 376.588 232.687 376.755 232.603 376.964C232.52 377.173 232.352 377.298 232.143 377.382C231.934 377.466 231.641 377.549 231.265 377.633C230.889 377.716 230.429 377.758 229.843 377.758C229.258 377.758 228.798 377.716 228.421 377.633C228.045 377.549 227.752 377.466 227.543 377.382C227.334 377.298 227.167 377.131 227.083 376.964C226.999 376.797 226.958 376.588 226.958 376.379V324.79C226.958 323.62 227.208 322.825 227.71 322.324C228.212 321.822 228.756 321.571 229.383 321.571H232.227C232.896 321.571 233.44 321.655 233.9 321.78C234.36 321.906 234.736 322.156 235.112 322.491C235.489 322.825 235.823 323.285 236.158 323.87C236.492 324.456 236.827 325.208 237.203 326.086L247.407 350.626C248.035 352.131 248.662 353.594 249.247 355.016C249.833 356.437 250.377 357.859 250.92 359.238C251.464 360.618 252.008 361.997 252.551 363.335C253.095 364.673 253.597 366.011 254.14 367.39H254.182C254.14 365.133 254.099 362.75 254.099 360.283C254.099 357.817 254.099 355.434 254.099 353.176V322.867C254.099 322.658 254.14 322.491 254.224 322.324C254.308 322.156 254.475 321.989 254.684 321.864C254.893 321.738 255.186 321.655 255.562 321.571C255.939 321.529 256.399 321.488 256.984 321.488C257.486 321.488 257.946 321.529 258.322 321.571C258.699 321.613 258.991 321.738 259.201 321.864C259.41 321.989 259.577 322.156 259.661 322.324C259.744 322.491 259.786 322.7 259.786 322.867V374.497H259.911Z" fill="#FFD200"/>
<path d="M285.374 355.852V376.462C285.374 376.671 285.333 376.88 285.249 377.047C285.165 377.215 284.998 377.34 284.789 377.466C284.58 377.549 284.245 377.633 283.869 377.716C283.492 377.8 283.032 377.842 282.489 377.842C281.945 377.842 281.485 377.8 281.109 377.716C280.732 377.633 280.44 377.549 280.189 377.466C279.938 377.382 279.812 377.215 279.687 377.047C279.603 376.88 279.561 376.671 279.561 376.462V355.852L267.225 324.33C266.974 323.661 266.806 323.16 266.765 322.783C266.723 322.407 266.765 322.115 266.932 321.906C267.099 321.697 267.392 321.571 267.852 321.529C268.27 321.487 268.897 321.446 269.608 321.446C270.277 321.446 270.821 321.487 271.239 321.529C271.657 321.571 271.992 321.655 272.243 321.78C272.494 321.864 272.661 322.031 272.787 322.198C272.912 322.365 273.038 322.616 273.121 322.909L279.143 338.962C279.687 340.467 280.272 342.098 280.816 343.77C281.36 345.442 281.945 347.114 282.531 348.829H282.614C283.116 347.198 283.66 345.568 284.203 343.937C284.747 342.307 285.291 340.718 285.876 339.13L291.94 322.992C292.024 322.7 292.107 322.449 292.233 322.24C292.358 322.031 292.526 321.906 292.735 321.78C292.944 321.697 293.236 321.613 293.613 321.529C293.989 321.487 294.491 321.446 295.077 321.446C295.871 321.446 296.54 321.488 296.958 321.571C297.418 321.655 297.753 321.78 297.92 321.989C298.088 322.198 298.171 322.491 298.088 322.867C298.046 323.243 297.878 323.745 297.628 324.372L285.374 355.852Z" fill="#FFD200"/>
<path d="M306.326 356.98L313.812 329.221L311.763 321.654C311.595 321.696 311.428 321.696 311.303 321.738C311.01 321.863 310.801 322.031 310.675 322.198C310.508 322.407 310.424 322.658 310.341 322.992L295.746 374.915C295.578 375.542 295.453 376.044 295.453 376.462C295.453 376.838 295.537 377.131 295.704 377.34C295.871 377.549 296.164 377.674 296.582 377.758C297 377.841 297.544 377.883 298.171 377.883C298.798 377.883 299.3 377.841 299.718 377.8C300.095 377.758 300.429 377.632 300.639 377.507C300.848 377.382 301.015 377.214 301.14 377.047C301.266 376.88 301.349 376.629 301.391 376.378L304.946 362.959H322.97L321.381 357.022H306.326V356.98Z" fill="#FFD200"/>
<path d="M177.45 430.269C175.986 430.98 173.101 431.733 169.42 431.733C160.847 431.733 154.407 426.34 154.407 416.348C154.407 406.816 160.847 400.378 170.299 400.378C174.104 400.378 176.488 401.172 177.534 401.716L176.572 404.935C175.066 404.224 172.975 403.681 170.424 403.681C163.315 403.681 158.547 408.238 158.547 416.223C158.547 423.664 162.813 428.43 170.215 428.43C172.599 428.43 175.024 427.928 176.613 427.176L177.45 430.269Z" fill="#FFD200"/>
<path d="M219.436 415.759C219.436 426.211 213.08 431.771 205.301 431.771C197.272 431.771 191.626 425.542 191.626 416.344C191.626 406.687 197.606 400.375 205.761 400.375C214.042 400.375 219.436 406.729 219.436 415.759ZM195.808 416.261C195.808 422.741 199.321 428.594 205.51 428.594C211.742 428.594 215.254 422.866 215.254 415.968C215.254 409.906 212.076 403.594 205.552 403.594C199.07 403.552 195.808 409.572 195.808 416.261Z" fill="#FFD200"/>
<path d="M262.149 417.891C261.94 413.669 261.647 408.568 261.689 404.764H261.564C260.518 408.317 259.264 412.122 257.716 416.302L252.363 431.06H249.394L244.459 416.595C242.996 412.331 241.783 408.401 240.946 404.764H240.863C240.779 408.568 240.528 413.669 240.277 418.184L239.483 431.227H235.719L237.852 400.834H242.87L248.056 415.55C249.31 419.312 250.356 422.615 251.109 425.792H251.234C251.987 422.74 253.074 419.396 254.454 415.55L259.849 400.834H264.867L266.749 431.227H262.902L262.149 417.891Z" fill="#FFD200"/>
<path d="M310.444 417.891C310.235 413.669 309.942 408.568 309.984 404.764H309.859C308.813 408.317 307.559 412.122 306.011 416.302L300.658 431.06H297.689L292.754 416.595C291.291 412.331 290.078 408.401 289.242 404.764H289.158C289.074 408.568 288.823 413.669 288.573 418.184L287.778 431.227H284.014L286.147 400.834H291.165L296.351 415.55C297.606 419.312 298.651 422.615 299.404 425.792H299.529C300.282 422.74 301.369 419.396 302.749 415.55L308.144 400.834H313.163L315.044 431.227H311.197L310.444 417.891Z" fill="#FFD200"/>
<path d="M336.99 400.876V431.269H333.059V400.876H336.99Z" fill="#FFD200"/>
<path d="M355.32 426.461C357.076 427.548 359.669 428.426 362.345 428.426C366.36 428.426 368.702 426.294 368.702 423.242C368.702 420.4 367.071 418.769 362.973 417.181C357.996 415.425 354.943 412.833 354.943 408.569C354.943 403.845 358.874 400.333 364.771 400.333C367.866 400.333 370.124 401.044 371.504 401.838L370.417 405.057C369.413 404.513 367.406 403.594 364.645 403.594C360.505 403.594 358.916 406.06 358.916 408.151C358.916 410.993 360.756 412.373 364.98 414.003C370.124 415.968 372.758 418.477 372.758 422.95C372.758 427.632 369.287 431.687 362.094 431.687C359.167 431.687 355.947 430.851 354.316 429.764L355.32 426.461Z" fill="#FFD200"/>
<path d="M389.565 426.461C391.322 427.548 393.915 428.426 396.591 428.426C400.606 428.426 402.948 426.294 402.948 423.242C402.948 420.4 401.317 418.769 397.218 417.181C392.242 415.425 389.189 412.833 389.189 408.569C389.189 403.845 393.12 400.333 399.017 400.333C402.111 400.333 404.37 401.044 405.75 401.838L404.662 405.057C403.659 404.513 401.651 403.594 398.891 403.594C394.751 403.594 393.162 406.06 393.162 408.151C393.162 410.993 395.002 412.373 399.226 414.003C404.37 415.968 407.004 418.477 407.004 422.95C407.004 427.632 403.533 431.687 396.34 431.687C393.413 431.687 390.193 430.851 388.562 429.764L389.565 426.461Z" fill="#FFD200"/>
<path d="M428.252 400.876V431.269H424.321V400.876H428.252Z" fill="#FFD200"/>
<path d="M473.12 415.759C473.12 426.211 466.763 431.771 458.985 431.771C450.955 431.771 445.31 425.542 445.31 416.344C445.31 406.687 451.29 400.375 459.445 400.375C467.725 400.375 473.12 406.729 473.12 415.759ZM449.492 416.261C449.492 422.741 453.004 428.594 459.194 428.594C465.425 428.594 468.938 422.866 468.938 415.968C468.938 409.906 465.759 403.594 459.236 403.594C452.753 403.552 449.492 409.572 449.492 416.261Z" fill="#FFD200"/>
<path d="M490.177 431.269V400.876H494.442L504.186 416.261C506.445 419.814 508.201 423.033 509.665 426.127L509.748 426.085C509.372 422.03 509.288 418.309 509.288 413.585V400.876H512.969V431.269H508.996L499.335 415.843C497.203 412.456 495.195 408.986 493.648 405.684L493.522 405.726C493.731 409.572 493.857 413.209 493.857 418.267V431.269H490.177Z" fill="#FFD200"/>
<path d="M393.654 320.902H370.528V377.215H393.654V320.902Z" fill="#FFD200"/>
<path fill-rule="evenodd" clip-rule="evenodd" d="M423.928 362.875V320.902H398.167V362.875V377.048H423.928H444.796V362.875H423.928Z" fill="#FFD200"/>
<path fill-rule="evenodd" clip-rule="evenodd" d="M492.095 320.777L484.023 332.023H480.678L471.268 320.777H448.351V377.215H471.268V349.79L482.643 359.322L492.095 349.957V377.215H514.97V320.777H492.095Z" fill="#FFD200"/>
<path d="M129.396 194.69H96.3999V218.687H129.396V194.69Z" fill="white"/>
<path d="M129.053 245.359H96.0569V269.355H129.053V245.359Z" fill="white"/>
<path d="M344.891 344.647L344.975 333.485H364.798L364.672 320.86H323.981L340.291 377.047H343.469L344.055 358.903H359.319V344.815H356.601L344.891 344.647Z" fill="#FFD200"/>
<path d="M129.396 93.5198H96.3999V117.516H129.396V93.5198Z" fill="white"/>
<path d="M129.053 144.189H96.0569V168.185H129.053V144.189Z" fill="white"/>
<path d="M129.396 42.2239H96.3999V66.2204H129.396V42.2239Z" fill="white"/>
<path d="M129.053 296.697H96.0569V320.693H129.053V296.697Z" fill="white"/>
<path d="M129.053 347.281H96.0569V371.278H129.053V347.281Z" fill="white"/>
<path d="M129.053 397.867H96.0569V421.863H129.053V397.867Z" fill="white"/>
<path d="M573.937 194.899H540.942V218.896H573.937V194.899Z" fill="white"/>
<path d="M573.552 245.568H540.556V269.565H573.552V245.568Z" fill="white"/>
<path d="M573.937 93.729H540.942V117.726H573.937V93.729Z" fill="white"/>
<path d="M573.552 144.397H540.556V168.394H573.552V144.397Z" fill="white"/>
<path d="M573.937 42.3912H540.942V66.3878H573.937V42.3912Z" fill="white"/>
<path d="M573.552 296.864H540.556V320.861H573.552V296.864Z" fill="white"/>
<path d="M573.552 347.449H540.556V371.445H573.552V347.449Z" fill="white"/>
<path d="M573.552 398.034H540.556V422.031H573.552V398.034Z" fill="white"/>
</svg>
